{
  "accessors": [
    {
      "bufferView": 2,
      "componentType": 5126,
      "count": 9354,
      "max": [
        3.130786895751953,
        4.025371074676514,
        4.9357709884643555
      ],
      "min": [
        -3.1307880878448486,
        -3.7162859439849854,
        -4.859422206878662
      ],
      "type": "VEC3"
    },
    {
      "bufferView": 2,
      "byteOffset": 112248,
      "componentType": 5126,
      "count": 9354,
      "max": [
        0.9999707341194153,
        0.998947262763977,
        0.9998158812522888
      ],
      "min": [
        -0.9999707341194153,
        -0.9999980926513672,
        -1.0
      ],
      "type": "VEC3"
    },
    {
      "bufferView": 1,
      "componentType": 5126,
      "count": 9354,
      "max": [
        72.67599487304688,
        13.181370735168457
      ],
      "min": [
        -29.67633628845215,
        -37.23358917236328
      ],
      "type": "VEC2"
    },
    {
      "bufferView": 0,
      "componentType": 5125,
      "count": 51984,
      "type": "SCALAR"
    },
    {
      "bufferView": 2,
      "byteOffset": 224496,
      "componentType": 5126,
      "count": 178,
      "max": [
        1.7991050481796265,
        0.2821809947490692,
        3.951011896133423
      ],
      "min": [
        -1.7991050481796265,
        -0.9118480086326599,
        2.7829909324645996
      ],
      "type": "VEC3"
    },
    {
      "bufferView": 2,
      "byteOffset": 226632,
      "componentType": 5126,
      "count": 178,
      "max": [
        0.999788224697113,
        0.6822752952575684,
        0.7542176842689514
      ],
      "min": [
        -0.999788224697113,
        -0.6900191903114319,
        -0.5859772562980652
      ],
      "type": "VEC3"
    },
    {
      "bufferView": 1,
      "byteOffset": 74832,
      "componentType": 5126,
      "count": 178,
      "max": [
        0.33847901225090027,
        0.8494129776954651
      ],
      "min": [
        0.10482800006866455,
        0.7358559966087341
      ],
      "type": "VEC2"
    },
    {
      "bufferView": 0,
      "byteOffset": 207936,
      "componentType": 5125,
      "count": 960,
      "type": "SCALAR"
    },
    {
      "bufferView": 2,
      "byteOffset": 228768,
      "componentType": 5126,
      "count": 572,
      "max": [
        1.7215319871902466,
        -0.29312199354171753,
        3.4259119033813477
      ],
      "min": [
        -1.7215310335159302,
        -3.3787240982055664,
        1.3978899717330933
      ],
      "type": "VEC3"
    },
    {
      "bufferView": 2,
      "byteOffset": 235632,
      "componentType": 5126,
      "count": 572,
      "max": [
        0.955004870891571,
        0.6778502464294434,
        0.9995266199111938
      ],
      "min": [
        -0.955004870891571,
        -0.964564859867096,
        -0.9999727606773376
      ],
      "type": "VEC3"
    },
    {
      "bufferView": 1,
      "byteOffset": 76256,
      "componentType": 5126,
      "count": 572,
      "max": [
        0.9943360090255737,
        0.9337520003318787
      ],
      "min": [
        0.8146870136260986,
        0.6594110131263733
      ],
      "type": "VEC2"
    },
    {
      "bufferView": 0,
      "byteOffset": 211776,
      "componentType": 5125,
      "count": 2736,
      "type": "SCALAR"
    },
    {
      "bufferView": 2,
      "byteOffset": 242496,
      "componentType": 5126,
      "count": 437,
      "max": [
        0.9556419849395752,
        1.018841028213501,
        2.530479907989502
      ],
      "min": [
        -0.9556419849395752,
        -3.002501964569092,
        1.18783700466156
      ],
      "type": "VEC3"
    },
    {
      "bufferView": 2,
      "byteOffset": 247740,
      "componentType": 5126,
      "count": 437,
      "max": [
        0.9998897910118103,
        1.0,
        0.9998451471328735
      ],
      "min": [
        -0.9998897910118103,
        -1.0,
        -0.9998599886894226
      ],
      "type": "VEC3"
    },
    {
      "bufferView": 1,
      "byteOffset": 80832,
      "componentType": 5126,
      "count": 437,
      "max": [
        1.0,
        1.0
      ],
      "min": [
        0.0,
        0.0
      ],
      "type": "VEC2"
    },
    {
      "bufferView": 0,
      "byteOffset": 222720,
      "componentType": 5125,
      "count": 2280,
      "type": "SCALAR"
    },
    {
      "bufferView": 2,
      "byteOffset": 252984,
      "componentType": 5126,
      "count": 376,
      "max": [
        1.5083359479904175,
        1.3637909889221191,
        3.7862560749053955
      ],
      "min": [
        -1.5083359479904175,
        -3.3973259925842285,
        3.4119839668273926
      ],
      "type": "VEC3"
    },
    {
      "bufferView": 2,
      "byteOffset": 257496,
      "componentType": 5126,
      "count": 376,
      "max": [
        0.9956234693527222,
        0.8499478697776794,
        0.6231883764266968
      ],
      "min": [
        -0.9956266283988953,
        -0.9771385192871094,
        -0.9925371408462524
      ],
      "type": "VEC3"
    },
    {
      "bufferView": 1,
      "byteOffset": 84328,
      "componentType": 5126,
      "count": 376,
      "max": [
        0.9757350087165833,
        0.5627660155296326
      ],
      "min": [
        0.8418899774551392,
        0.4172680079936981
      ],
      "type": "VEC2"
    },
    {
      "bufferView": 0,
      "byteOffset": 231840,
      "componentType": 5125,
      "count": 1776,
      "type": "SCALAR"
    },
    {
      "bufferView": 2,
      "byteOffset": 262008,
      "componentType": 5126,
      "count": 3756,
      "max": [
        3.0968871116638184,
        0.8482829928398132,
        2.176711082458496
      ],
      "min": [
        -3.0968871116638184,
        -3.2758638858795166,
        -4.879897117614746
      ],
      "type": "VEC3"
    },
    {
      "bufferView": 2,
      "byteOffset": 307080,
      "componentType": 5126,
      "count": 3756,
      "max": [
        0.9990452527999878,
        0.9987490177154541,
        0.9999985694885254
      ],
      "min": [
        -0.9990452527999878,
        -0.9997217655181885,
        -0.9999569058418274
      ],
      "type": "VEC3"
    },
    {
      "bufferView": 1,
      "byteOffset": 87336,
      "componentType": 5126,
      "count": 3756,
      "max": [
        0.9878280162811279,
        1.0
      ],
      "min": [
        0.25,
        -0.0
      ],
      "type": "VEC2"
    },
    {
      "bufferView": 0,
      "byteOffset": 238944,
      "componentType": 5125,
      "count": 19584,
      "type": "SCALAR"
    }
  ],
  "asset": {
    "extras": {
      "author": "pokedigilucas (https://sketchfab.com/pokedigilucas)",
      "license": "CC-BY-4.0 (http://creativecommons.org/licenses/by/4.0/)",
      "source": "https://sketchfab.com/3d-models/digimon-agumon-2ca5f3152c004734b00a71efee87960a",
      "title": "digimon agumon"
    },
    "generator": "Sketchfab-12.66.0",
    "version": "2.0"
  },
  "bufferViews": [
    {
      "buffer": 0,
      "byteLength": 317280,
      "name": "floatBufferViews",
      "target": 34963
    },
    {
      "buffer": 0,
      "byteLength": 117384,
      "byteOffset": 317280,
      "byteStride": 8,
      "name": "floatBufferViews",
      "target": 34962
    },
    {
      "buffer": 0,
      "byteLength": 352152,
      "byteOffset": 434664,
      "byteStride": 12,
      "name": "floatBufferViews",
      "target": 34962
    }
  ],
  "buffers": [
    {
      "byteLength": 786816,
      "uri": "scene.bin"
    }
  ],
  "images": [
    {
      "uri": "textures/aiStandardSurface1SG_baseColor.png"
    },
    {
      "uri": "textures/aiStandardSurface1SG_metallicRoughness.png"
    },
    {
      "uri": "textures/aiStandardSurface3SG_baseColor.png"
    }
  ],
  "materials": [
    {
      "doubleSided": true,
      "name": "aiStandardSurface1SG",
      "pbrMetallicRoughness": {
        "baseColorTexture": {
          "index": 0
        },
        "metallicFactor": 0.0,
        "metallicRoughnessTexture": {
          "index": 1
        }
      }
    },
    {
      "doubleSided": true,
      "name": "aiStandardSurface2SG",
      "pbrMetallicRoughness": {
        "metallicFactor": 0.0
      }
    },
    {
      "doubleSided": true,
      "name": "aiStandardSurface3SG",
      "pbrMetallicRoughness": {
        "baseColorTexture": {
          "index": 2
        },
        "metallicFactor": 0.0
      }
    },
    {
      "doubleSided": true,
      "name": "aiStandardSurface4SG",
      "pbrMetallicRoughness": {
        "baseColorFactor": [
          0.3113642400293012,
          0.0,
          0.0,
          1.0
        ],
        "metallicFactor": 0.0
      }
    },
    {
      "doubleSided": true,
      "name": "aiStandardSurface5SG",
      "pbrMetallicRoughness": {
        "baseColorFactor": [
          0.7175136271918134,
          0.0,
          0.0,
          1.0
        ],
        "metallicFactor": 0.0
      }
    },
    {
      "doubleSided": true,
      "name": "aiStandardSurface6SG_initialShadingGroup",
      "pbrMetallicRoughness": {
        "baseColorFactor": [
          0.0,
          0.0,
          0.0,
          1.0
        ],
        "metallicFactor": 0.0,
        "roughnessFactor": 0.6
      }
    }
  ],
  "meshes": [
    {
      "name": "Object_0",
      "primitives": [
        {
          "attributes": {
            "NORMAL": 1,
            "POSITION": 0,
            "TEXCOORD_0": 2
          },
          "indices": 3,
          "material": 0,
          "mode": 4
        }
      ]
    },
    {
      "name": "Object_1",
      "primitives": [
        {
          "attributes": {
            "NORMAL": 5,
            "POSITION": 4,
            "TEXCOORD_0": 6
          },
          "indices": 7,
          "material": 2,
          "mode": 4
        }
      ]
    },
    {
      "name": "Object_2",
      "primitives": [
        {
          "attributes": {
            "NORMAL": 9,
            "POSITION": 8,
            "TEXCOORD_0": 10
          },
          "indices": 11,
          "material": 3,
          "mode": 4
        }
      ]
    },
    {
      "name": "Object_3",
      "primitives": [
        {
          "attributes": {
            "NORMAL": 13,
            "POSITION": 12,
            "TEXCOORD_0": 14
          },
          "indices": 15,
          "material": 4,
          "mode": 4
        }
      ]
    },
    {
      "name": "Object_4",
      "primitives": [
        {
          "attributes": {
            "NORMAL": 17,
            "POSITION": 16,
            "TEXCOORD_0": 18
          },
          "indices": 19,
          "material": 5,
          "mode": 4
        }
      ]
    },
    {
      "name": "Object_5",
      "primitives": [
        {
          "attributes": {
            "NORMAL": 21,
            "POSITION": 20,
            "TEXCOORD_0": 22
          },
          "indices": 23,
          "material": 1,
          "mode": 4
        }
      ]
    }
  ],
  "nodes": [
    {
      "children": [
        1
      ],
      "matrix": [
        1.0,
        0.0,
        0.0,
        0.0,
        0.0,
        2.220446049250313e-16,
        -1.0,
        0.0,
        0.0,
        1.0,
        2.220446049250313e-16,
        0.0,
        0.0,
        0.0,
        0.0,
        1.0
      ],
      "name": "Sketchfab_model"
    },
    {
      "children": [
        2,
        3,
        4,
        5,
        6,
        7
      ],
      "name": "agumon.obj.cleaner.materialmerger.gles"
    },
    {
      "mesh": 0,
      "name": "Object_2"
    },
    {
      "mesh": 1,
      "name": "Object_3"
    },
    {
      "mesh": 2,
      "name": "Object_4"
    },
    {
      "mesh": 3,
      "name": "Object_5"
    },
    {
      "mesh": 4,
      "name": "Object_6"
    },
    {
      "mesh": 5,
      "name": "Object_7"
    }
  ],
  "samplers": [
    {
      "magFilter": 9729,
      "minFilter": 9987,
      "wrapS": 10497,
      "wrapT": 10497
    }
  ],
  "scene": 0,
  "scenes": [
    {
      "name": "Sketchfab_Scene",
      "nodes": [
        0
      ]
    }
  ],
  "textures": [
    {
      "sampler": 0,
      "source": 0
    },
    {
      "sampler": 0,
      "source": 1
    },
    {
      "sampler": 0,
      "source": 2
    }
  ]
}
