{
  "accessors": [
    {
      "bufferView": 2,
      "componentType": 5126,
      "count": 200,
      "max": [
        0.0699148178100586,
        0.2814030647277832,
        0.28140291571617126
      ],
      "min": [
        -0.08254706859588623,
        -0.281402587890625,
        -0.2814028561115265
      ],
      "type": "VEC3"
    },
    {
      "bufferView": 2,
      "byteOffset": 2400,
      "componentType": 5126,
      "count": 200,
      "max": [
        1.0,
        1.0,
        1.0
      ],
      "min": [
        -1.0,
        -1.0,
        -1.0
      ],
      "type": "VEC3"
    },
    {
      "bufferView": 1,
      "componentType": 5126,
      "count": 200,
      "max": [
        0.4307706356048584,
        0.10462385416030884
      ],
      "min": [
        0.12113761901855469,
        0.005256288684904575
      ],
      "type": "VEC2"
    },
    {
      "bufferView": 0,
      "componentType": 5125,
      "count": 588,
      "type": "SCALAR"
    },
    {
      "bufferView": 2,
      "byteOffset": 4800,
      "componentType": 5126,
      "count": 200,
      "max": [
        0.08254692703485489,
        0.2814030647277832,
        0.28140291571617126
      ],
      "min": [
        -0.06991499662399292,
        -0.281402587890625,
        -0.2814028561115265
      ],
      "type": "VEC3"
    },
    {
      "bufferView": 2,
      "byteOffset": 7200,
      "componentType": 5126,
      "count": 200,
      "max": [
        1.0,
        1.0,
        1.0
      ],
      "min": [
        -1.0,
        -1.0,
        -1.0
      ],
      "type": "VEC3"
    },
    {
      "bufferView": 1,
      "byteOffset": 1600,
      "componentType": 5126,
      "count": 200,
      "max": [
        0.4307706356048584,
        0.10462385416030884
      ],
      "min": [
        0.12113761901855469,
        0.005256288684904575
      ],
      "type": "VEC2"
    },
    {
      "bufferView": 0,
      "byteOffset": 2352,
      "componentType": 5125,
      "count": 588,
      "type": "SCALAR"
    },
    {
      "bufferView": 2,
      "byteOffset": 9600,
      "componentType": 5126,
      "count": 200,
      "max": [
        0.06991457939147949,
        0.28140297532081604,
        0.28140291571617126
      ],
      "min": [
        -0.08254730701446533,
        -0.28140291571617126,
        -0.2814028561115265
      ],
      "type": "VEC3"
    },
    {
      "bufferView": 2,
      "byteOffset": 12000,
      "componentType": 5126,
      "count": 200,
      "max": [
        1.0,
        1.0,
        1.0
      ],
      "min": [
        -1.0,
        -1.0,
        -1.0
      ],
      "type": "VEC3"
    },
    {
      "bufferView": 1,
      "byteOffset": 3200,
      "componentType": 5126,
      "count": 200,
      "max": [
        0.4307706356048584,
        0.10462385416030884
      ],
      "min": [
        0.12113761901855469,
        0.005256288684904575
      ],
      "type": "VEC2"
    },
    {
      "bufferView": 0,
      "byteOffset": 4704,
      "componentType": 5125,
      "count": 588,
      "type": "SCALAR"
    },
    {
      "bufferView": 2,
      "byteOffset": 14400,
      "componentType": 5126,
      "count": 200,
      "max": [
        0.08254692703485489,
        0.28140294551849365,
        0.28140291571617126
      ],
      "min": [
        -0.06991499662399292,
        -0.28140294551849365,
        -0.2814028561115265
      ],
      "type": "VEC3"
    },
    {
      "bufferView": 2,
      "byteOffset": 16800,
      "componentType": 5126,
      "count": 200,
      "max": [
        1.0,
        1.0,
        1.0
      ],
      "min": [
        -1.0,
        -1.0,
        -1.0
      ],
      "type": "VEC3"
    },
    {
      "bufferView": 1,
      "byteOffset": 4800,
      "componentType": 5126,
      "count": 200,
      "max": [
        0.4307706356048584,
        0.10462385416030884
      ],
      "min": [
        0.12113761901855469,
        0.005256288684904575
      ],
      "type": "VEC2"
    },
    {
      "bufferView": 0,
      "byteOffset": 7056,
      "componentType": 5125,
      "count": 588,
      "type": "SCALAR"
    },
    {
      "bufferView": 2,
      "byteOffset": 19200,
      "componentType": 5126,
      "count": 84,
      "max": [
        0.23488251864910126,
        0.0012454329989850521,
        0.06302935630083084
      ],
      "min": [
        -0.23488250374794006,
        -0.0015529935481026769,
        -0.07047785818576813
      ],
      "type": "VEC3"
    },
    {
      "bufferView": 2,
      "byteOffset": 20208,
      "componentType": 5126,
      "count": 84,
      "max": [
        1.0,
        1.0,
        1.0
      ],
      "min": [
        -1.0,
        -1.0,
        -1.0
      ],
      "type": "VEC3"
    },
    {
      "bufferView": 1,
      "byteOffset": 6400,
      "componentType": 5126,
      "count": 84,
      "max": [
        0.9196346998214722,
        0.9450617432594299
      ],
      "min": [
        0.08167273551225662,
        0.0431501567363739
      ],
      "type": "VEC2"
    },
    {
      "bufferView": 0,
      "byteOffset": 9408,
      "componentType": 5125,
      "count": 132,
      "type": "SCALAR"
    },
    {
      "bufferView": 2,
      "byteOffset": 21216,
      "componentType": 5126,
      "count": 7733,
      "max": [
        0.7087291479110718,
        1.5225943326950073,
        1.5454442501068115
      ],
      "min": [
        -0.7087291479110718,
        -1.4920932054519653,
        0.13825178146362305
      ],
      "type": "VEC3"
    },
    {
      "bufferView": 2,
      "byteOffset": 114012,
      "componentType": 5126,
      "count": 7733,
      "max": [
        1.0,
        1.0,
        1.0
      ],
      "min": [
        -1.0,
        -1.0,
        -1.0
      ],
      "type": "VEC3"
    },
    {
      "bufferView": 1,
      "byteOffset": 7072,
      "componentType": 5126,
      "count": 7733,
      "max": [
        1.0,
        1.0
      ],
      "min": [
        0.0,
        0.0
      ],
      "type": "VEC2"
    },
    {
      "bufferView": 0,
      "byteOffset": 9936,
      "componentType": 5125,
      "count": 24633,
      "type": "SCALAR"
    },
    {
      "bufferView": 2,
      "byteOffset": 206808,
      "componentType": 5126,
      "count": 1948,
      "max": [
        1.895137906074524,
        2.3029274940490723,
        0.7669773101806641
      ],
      "min": [
        -1.955357551574707,
        -1.914625644683838,
        -1.1723149384579301e-07
      ],
      "type": "VEC3"
    },
    {
      "bufferView": 2,
      "byteOffset": 230184,
      "componentType": 5126,
      "count": 1948,
      "max": [
        1.0,
        1.0,
        1.0
      ],
      "min": [
        -1.0,
        -1.0,
        -1.0
      ],
      "type": "VEC3"
    },
    {
      "bufferView": 1,
      "byteOffset": 68936,
      "componentType": 5126,
      "count": 1948,
      "max": [
        0.8599686026573181,
        0.9871429204940796
      ],
      "min": [
        0.004466496407985687,
        0.0031879814341664314
      ],
      "type": "VEC2"
    },
    {
      "bufferView": 0,
      "byteOffset": 108468,
      "componentType": 5125,
      "count": 4527,
      "type": "SCALAR"
    },
    {
      "bufferView": 2,
      "byteOffset": 253560,
      "componentType": 5126,
      "count": 1382,
      "max": [
        0.25781530141830444,
        0.2901337146759033,
        1.2090048789978027
      ],
      "min": [
        -0.9187444448471069,
        -1.6610957384109497,
        -0.003930998034775257
      ],
      "type": "VEC3"
    },
    {
      "bufferView": 2,
      "byteOffset": 270144,
      "componentType": 5126,
      "count": 1382,
      "max": [
        1.0,
        1.0,
        1.0
      ],
      "min": [
        -1.0,
        -1.0,
        -1.0
      ],
      "type": "VEC3"
    },
    {
      "bufferView": 1,
      "byteOffset": 84520,
      "componentType": 5126,
      "count": 1382,
      "max": [
        0.9859607219696045,
        0.740552544593811
      ],
      "min": [
        0.0025788825005292892,
        0.0031879814341664314
      ],
      "type": "VEC2"
    },
    {
      "bufferView": 0,
      "byteOffset": 126576,
      "componentType": 5125,
      "count": 3312,
      "type": "SCALAR"
    }
  ],
  "asset": {
    "extras": {
      "author": "thcyrax (https://sketchfab.com/kitsunegraphics)",
      "license": "CC-BY-4.0 (http://creativecommons.org/licenses/by/4.0/)",
      "source": "https://sketchfab.com/3d-models/environment-moving-and-hauling-11f5069c2cae41b9a18d7847e67bc202",
      "title": "ENVIRONMENT - MOVING AND HAULING"
    },
    "generator": "Sketchfab-12.65.0",
    "version": "2.0"
  },
  "bufferViews": [
    {
      "buffer": 0,
      "byteLength": 139824,
      "name": "floatBufferViews",
      "target": 34963
    },
    {
      "buffer": 0,
      "byteLength": 95576,
      "byteOffset": 139824,
      "byteStride": 8,
      "name": "floatBufferViews",
      "target": 34962
    },
    {
      "buffer": 0,
      "byteLength": 286728,
      "byteOffset": 235400,
      "byteStride": 12,
      "name": "floatBufferViews",
      "target": 34962
    }
  ],
  "buffers": [
    {
      "byteLength": 522128,
      "uri": "scene.bin"
    }
  ],
  "images": [
    {
      "uri": "textures/Vehicle.001_baseColor.png"
    },
    {
      "uri": "textures/Matricula.001_baseColor.png"
    },
    {
      "uri": "textures/Environment_baseColor.png"
    }
  ],
  "materials": [
    {
      "doubleSided": true,
      "name": "Vehicle.001",
      "pbrMetallicRoughness": {
        "baseColorTexture": {
          "index": 0
        },
        "metallicFactor": 0.0,
        "roughnessFactor": 0.7
      }
    },
    {
      "doubleSided": true,
      "name": "Matricula.001",
      "pbrMetallicRoughness": {
        "baseColorTexture": {
          "index": 1
        },
        "metallicFactor": 0.0,
        "roughnessFactor": 0.7
      }
    },
    {
      "name": "Environment",
      "pbrMetallicRoughness": {
        "baseColorTexture": {
          "index": 2
        },
        "metallicFactor": 0.0,
        "roughnessFactor": 0.8212901278226873
      }
    }
  ],
  "meshes": [
    {
      "name": "RRW_Vehicle.001_0",
      "primitives": [
        {
          "attributes": {
            "NORMAL": 1,
            "POSITION": 0,
            "TEXCOORD_0": 2
          },
          "indices": 3,
          "material": 0,
          "mode": 4
        }
      ]
    },
    {
      "name": "RLW_Vehicle.001_0",
      "primitives": [
        {
          "attributes": {
            "NORMAL": 5,
            "POSITION": 4,
            "TEXCOORD_0": 6
          },
          "indices": 7,
          "material": 0,
          "mode": 4
        }
      ]
    },
    {
      "name": "FRW_Vehicle.001_0",
      "primitives": [
        {
          "attributes": {
            "NORMAL": 9,
            "POSITION": 8,
            "TEXCOORD_0": 10
          },
          "indices": 11,
          "material": 0,
          "mode": 4
        }
      ]
    },
    {
      "name": "FLW_Vehicle.001_0",
      "primitives": [
        {
          "attributes": {
            "NORMAL": 13,
            "POSITION": 12,
            "TEXCOORD_0": 14
          },
          "indices": 15,
          "material": 0,
          "mode": 4
        }
      ]
    },
    {
      "name": "Circle.001_Matricula.001_0",
      "primitives": [
        {
          "attributes": {
            "NORMAL": 17,
            "POSITION": 16,
            "TEXCOORD_0": 18
          },
          "indices": 19,
          "material": 1,
          "mode": 4
        }
      ]
    },
    {
      "name": "Body_Vehicle.001_0",
      "primitives": [
        {
          "attributes": {
            "NORMAL": 21,
            "POSITION": 20,
            "TEXCOORD_0": 22
          },
          "indices": 23,
          "material": 0,
          "mode": 4
        }
      ]
    },
    {
      "name": "Environment_Environment_0",
      "primitives": [
        {
          "attributes": {
            "NORMAL": 25,
            "POSITION": 24,
            "TEXCOORD_0": 26
          },
          "indices": 27,
          "material": 2,
          "mode": 4
        }
      ]
    },
    {
      "name": "Cube.018_Environment_0",
      "primitives": [
        {
          "attributes": {
            "NORMAL": 29,
            "POSITION": 28,
            "TEXCOORD_0": 30
          },
          "indices": 31,
          "material": 2,
          "mode": 4
        }
      ]
    }
  ],
  "nodes": [
    {
      "children": [
        1
      ],
      "matrix": [
        1.0,
        0.0,
        0.0,
        0.0,
        0.0,
        2.220446049250313e-16,
        -1.0,
        0.0,
        0.0,
        1.0,
        2.220446049250313e-16,
        0.0,
        0.0,
        0.0,
        0.0,
        1.0
      ],
      "name": "Sketchfab_model"
    },
    {
      "children": [
        2
      ],
      "matrix": [
        1.0,
        0.0,
        0.0,
        0.0,
        0.0,
        0.0,
        1.0,
        0.0,
        0.0,
        -1.0,
        0.0,
        0.0,
        0.0,
        0.0,
        0.0,
        1.0
      ],
      "name": "2e9e0a55a6a64cd2a73e17be998cf3a4.fbx"
    },
    {
      "children": [
        3,
        5,
        7,
        9,
        11,
        13,
        15,
        17
      ],
      "name": "RootNode"
    },
    {
      "children": [
        4
      ],
      "matrix": [
        100.0,
        0.0,
        0.0,
        0.0,
        -0.0,
        -1.629206793918314e-05,
        -99.99999999999868,
        0.0,
        0.0,
        99.99999999999868,
        -1.629206793918314e-05,
        0.0,
        -55.137603759765625,
        28.140275955200195,
        -96.47749328613281,
        1.0
      ],
      "name": "RRW"
    },
    {
      "mesh": 0,
      "name": "RRW_Vehicle.001_0"
    },
    {
      "children": [
        6
      ],
      "matrix": [
        100.0,
        0.0,
        0.0,
        0.0,
        0.0,
        -1.629206793918314e-05,
        -99.99999999999868,
        0.0,
        0.0,
        99.99999999999868,
        -1.629206793918314e-05,
        0.0,
        55.13762283325195,
        28.140274047851563,
        -96.47749328613281,
        1.0
      ],
      "name": "RLW"
    },
    {
      "mesh": 1,
      "name": "RLW_Vehicle.001_0"
    },
    {
      "children": [
        8
      ],
      "matrix": [
        86.60254263015284,
        -1.8893916514661768e-06,
        49.99999609992544,
        0.0,
        49.99999609992528,
        -5.461979690757346e-06,
        -86.60254263015277,
        0.0,
        4.367250838743786e-06,
        99.99999999999984,
        -3.7855175438750166e-06,
        0.0,
        -55.13758087158203,
        28.140275955200195,
        104.16007232666016,
        1.0
      ],
      "name": "FRW"
    },
    {
      "mesh": 2,
      "name": "FRW_Vehicle.001_0"
    },
    {
      "children": [
        10
      ],
      "matrix": [
        86.60254263015284,
        -1.8893916514661768e-06,
        49.99999609992544,
        0.0,
        49.99999609992528,
        -5.461979690757346e-06,
        -86.60254263015277,
        0.0,
        4.367250838743786e-06,
        99.99999999999984,
        -3.7855175438750166e-06,
        0.0,
        55.13762283325195,
        28.140274047851563,
        104.16007232666016,
        1.0
      ],
      "name": "FLW"
    },
    {
      "mesh": 3,
      "name": "FLW_Vehicle.001_0"
    },
    {
      "children": [
        12
      ],
      "matrix": [
        100.0,
        0.0,
        0.0,
        0.0,
        -0.0,
        -1.629206793918314e-05,
        -99.99999999999868,
        0.0,
        0.0,
        99.99999999999868,
        -1.629206793918314e-05,
        0.0,
        -1.4901161193847656e-06,
        46.42973709106445,
        149.37387084960938,
        1.0
      ],
      "name": "Circle.001"
    },
    {
      "mesh": 4,
      "name": "Circle.001_Matricula.001_0"
    },
    {
      "children": [
        14
      ],
      "matrix": [
        100.0,
        0.0,
        0.0,
        0.0,
        0.0,
        -1.629206793918314e-05,
        -99.99999999999868,
        0.0,
        0.0,
        99.99999999999868,
        -1.629206793918314e-05,
        0.0,
        0.0,
        0.0,
        0.0,
        1.0
      ],
      "name": "Body"
    },
    {
      "mesh": 5,
      "name": "Body_Vehicle.001_0"
    },
    {
      "children": [
        16
      ],
      "matrix": [
        100.0,
        0.0,
        0.0,
        0.0,
        0.0,
        -1.629206793918314e-05,
        -99.99999999999868,
        0.0,
        0.0,
        99.99999999999868,
        -1.629206793918314e-05,
        0.0,
        0.0,
        0.0,
        0.0,
        1.0
      ],
      "name": "Environment"
    },
    {
      "mesh": 6,
      "name": "Environment_Environment_0"
    },
    {
      "children": [
        18
      ],
      "matrix": [
        100.0,
        0.0,
        0.0,
        0.0,
        0.0,
        -1.629206793918314e-05,
        -99.99999999999868,
        0.0,
        0.0,
        99.99999999999868,
        -1.629206793918314e-05,
        0.0,
        34.1510009765625,
        62.29502487182617,
        -117.32923126220703,
        1.0
      ],
      "name": "Cube.018"
    },
    {
      "mesh": 7,
      "name": "Cube.018_Environment_0"
    }
  ],
  "samplers": [
    {
      "magFilter": 9729,
      "minFilter": 9987,
      "wrapS": 10497,
      "wrapT": 10497
    },
    {
      "magFilter": 9729,
      "minFilter": 9729,
      "wrapS": 10497,
      "wrapT": 10497
    }
  ],
  "scene": 0,
  "scenes": [
    {
      "name": "Sketchfab_Scene",
      "nodes": [
        0
      ]
    }
  ],
  "textures": [
    {
      "sampler": 0,
      "source": 0
    },
    {
      "sampler": 1,
      "source": 1
    },
    {
      "sampler": 0,
      "source": 2
    }
  ]
}
