{
  "accessors": [
    {
      "bufferView": 2,
      "componentType": 5126,
      "count": 65532,
      "max": [
        3.7035319805145264,
        5.115746974945068,
        6.051136016845703
      ],
      "min": [
        -5.656930923461914,
        -5.260952949523926,
        -5.327620983123779
      ],
      "type": "VEC3"
    },
    {
      "bufferView": 2,
      "byteOffset": 786384,
      "componentType": 5126,
      "count": 65532,
      "max": [
        0.9999995827674866,
        0.9999977350234985,
        0.9999980926513672
      ],
      "min": [
        -0.9999994039535522,
        -0.9999998807907104,
        -0.999998152256012
      ],
      "type": "VEC3"
    },
    {
      "bufferView": 1,
      "componentType": 5126,
      "count": 65532,
      "max": [
        0.9990910291671753,
        0.9975289702415466
      ],
      "min": [
        0.00039599998854100704,
        0.0007820000173524022
      ],
      "type": "VEC2"
    },
    {
      "bufferView": 0,
      "componentType": 5125,
      "count": 309849,
      "type": "SCALAR"
    },
    {
      "bufferView": 2,
      "byteOffset": 1572768,
      "componentType": 5126,
      "count": 65532,
      "max": [
        7.779794216156006,
        5.189404010772705,
        9.30093002319336
      ],
      "min": [
        -7.779792785644531,
        -5.252567768096924,
        -9.30093002319336
      ],
      "type": "VEC3"
    },
    {
      "bufferView": 2,
      "byteOffset": 2359152,
      "componentType": 5126,
      "count": 65532,
      "max": [
        0.9999998807907104,
        0.9999398589134216,
        0.9999978542327881
      ],
      "min": [
        -1.0,
        -0.9999998211860657,
        -0.999990701675415
      ],
      "type": "VEC3"
    },
    {
      "bufferView": 1,
      "byteOffset": 524256,
      "componentType": 5126,
      "count": 65532,
      "max": [
        0.9990760087966919,
        0.9997040033340454
      ],
      "min": [
        0.0008670000243000686,
        0.003235999960452318
      ],
      "type": "VEC2"
    },
    {
      "bufferView": 0,
      "byteOffset": 1239396,
      "componentType": 5125,
      "count": 301413,
      "type": "SCALAR"
    },
    {
      "bufferView": 2,
      "byteOffset": 3145536,
      "componentType": 5126,
      "count": 65532,
      "max": [
        7.779794216156006,
        5.213296890258789,
        9.30093002319336
      ],
      "min": [
        -7.779794216156006,
        -3.925913095474243,
        -9.30093002319336
      ],
      "type": "VEC3"
    },
    {
      "bufferView": 2,
      "byteOffset": 3931920,
      "componentType": 5126,
      "count": 65532,
      "max": [
        0.9999994039535522,
        0.9999755620956421,
        0.999997615814209
      ],
      "min": [
        -0.9999991059303284,
        -0.9999999403953552,
        -0.999999463558197
      ],
      "type": "VEC3"
    },
    {
      "bufferView": 1,
      "byteOffset": 1048512,
      "componentType": 5126,
      "count": 65532,
      "max": [
        0.9971680045127869,
        0.9997259974479675
      ],
      "min": [
        0.00042699999175965786,
        4.999999873689376e-06
      ],
      "type": "VEC2"
    },
    {
      "bufferView": 0,
      "byteOffset": 2445048,
      "componentType": 5125,
      "count": 303678,
      "type": "SCALAR"
    },
    {
      "bufferView": 2,
      "byteOffset": 4718304,
      "componentType": 5126,
      "count": 65532,
      "max": [
        7.770417213439941,
        5.262601852416992,
        3.1087839603424072
      ],
      "min": [
        -7.243833065032959,
        -5.262602806091309,
        -5.505415916442871
      ],
      "type": "VEC3"
    },
    {
      "bufferView": 2,
      "byteOffset": 5504688,
      "componentType": 5126,
      "count": 65532,
      "max": [
        0.9999997019767761,
        0.9999778866767883,
        0.999997615814209
      ],
      "min": [
        -1.0,
        -1.0,
        -0.9999997019767761
      ],
      "type": "VEC3"
    },
    {
      "bufferView": 1,
      "byteOffset": 1572768,
      "componentType": 5126,
      "count": 65532,
      "max": [
        0.9936310052871704,
        0.9997230172157288
      ],
      "min": [
        0.001104000024497509,
        0.012482999823987484
      ],
      "type": "VEC2"
    },
    {
      "bufferView": 0,
      "byteOffset": 3659760,
      "componentType": 5125,
      "count": 309516,
      "type": "SCALAR"
    },
    {
      "bufferView": 2,
      "byteOffset": 6291072,
      "componentType": 5126,
      "count": 65532,
      "max": [
        7.765799045562744,
        5.152610778808594,
        5.139678001403809
      ],
      "min": [
        -7.779792785644531,
        -5.257922172546387,
        -9.164545059204102
      ],
      "type": "VEC3"
    },
    {
      "bufferView": 2,
      "byteOffset": 7077456,
      "componentType": 5126,
      "count": 65532,
      "max": [
        0.9999997615814209,
        0.9996404051780701,
        0.9999805688858032
      ],
      "min": [
        -0.9999995827674866,
        -1.0,
        -0.9999997019767761
      ],
      "type": "VEC3"
    },
    {
      "bufferView": 1,
      "byteOffset": 2097024,
      "componentType": 5126,
      "count": 65532,
      "max": [
        0.9993500113487244,
        0.9997469782829285
      ],
      "min": [
        0.001101000001654029,
        0.00014400000509340316
      ],
      "type": "VEC2"
    },
    {
      "bufferView": 0,
      "byteOffset": 4897824,
      "componentType": 5125,
      "count": 289092,
      "type": "SCALAR"
    },
    {
      "bufferView": 2,
      "byteOffset": 7863840,
      "componentType": 5126,
      "count": 65532,
      "max": [
        7.773043155670166,
        5.239873886108398,
        5.059638977050781
      ],
      "min": [
        -7.19988489151001,
        -5.260317802429199,
        -0.7155050039291382
      ],
      "type": "VEC3"
    },
    {
      "bufferView": 2,
      "byteOffset": 8650224,
      "componentType": 5126,
      "count": 65532,
      "max": [
        0.9999998807907104,
        0.9999977350234985,
        0.9999997019767761
      ],
      "min": [
        -0.9999995231628418,
        -0.9999999403953552,
        -0.9999696016311646
      ],
      "type": "VEC3"
    },
    {
      "bufferView": 1,
      "byteOffset": 2621280,
      "componentType": 5126,
      "count": 65532,
      "max": [
        0.9999899864196777,
        0.999576985836029
      ],
      "min": [
        1.9999999949504854e-06,
        0.0005310000269673765
      ],
      "type": "VEC2"
    },
    {
      "bufferView": 0,
      "byteOffset": 6054192,
      "componentType": 5125,
      "count": 291303,
      "type": "SCALAR"
    },
    {
      "bufferView": 2,
      "byteOffset": 9436608,
      "componentType": 5126,
      "count": 9430,
      "max": [
        7.5068159103393555,
        5.1647210121154785,
        6.910445213317871
      ],
      "min": [
        -6.849997043609619,
        -5.253889083862305,
        2.904474973678589
      ],
      "type": "VEC3"
    },
    {
      "bufferView": 2,
      "byteOffset": 9549768,
      "componentType": 5126,
      "count": 9430,
      "max": [
        0.9998806118965149,
        0.9996240735054016,
        0.9999986886978149
      ],
      "min": [
        -0.999999463558197,
        -0.9999969601631165,
        -0.99993896484375
      ],
      "type": "VEC3"
    },
    {
      "bufferView": 1,
      "byteOffset": 3145536,
      "componentType": 5126,
      "count": 9430,
      "max": [
        0.9974129796028137,
        0.9986550211906433
      ],
      "min": [
        0.0003549999964889139,
        0.0007670000195503235
      ],
      "type": "VEC2"
    },
    {
      "bufferView": 0,
      "byteOffset": 7219404,
      "componentType": 5125,
      "count": 24924,
      "type": "SCALAR"
    }
  ],
  "asset": {
    "extras": {
      "author": "Andrea Spognetta (Spogna) (https://sketchfab.com/spogna)",
      "license": "CC-BY-4.0 (http://creativecommons.org/licenses/by/4.0/)",
      "source": "https://sketchfab.com/3d-models/palletboxesforklift-rawscan-c2cf485ab7ca42c78807e72d8952cc5a",
      "title": "Pallet+Boxes+Forklift  .::RAWscan::."
    },
    "generator": "Sketchfab-12.67.0",
    "version": "2.0"
  },
  "bufferViews": [
    {
      "buffer": 0,
      "byteLength": 7319100,
      "name": "floatBufferViews",
      "target": 34963
    },
    {
      "buffer": 0,
      "byteLength": 3220976,
      "byteOffset": 7319100,
      "byteStride": 8,
      "name": "floatBufferViews",
      "target": 34962
    },
    {
      "buffer": 0,
      "byteLength": 9662928,
      "byteOffset": 10540076,
      "byteStride": 12,
      "name": "floatBufferViews",
      "target": 34962
    }
  ],
  "buffers": [
    {
      "byteLength": 20203004,
      "uri": "scene.bin"
    }
  ],
  "extensionsUsed": [
    "KHR_materials_unlit"
  ],
  "images": [
    {
      "uri": "textures/pallet_baseColor.jpeg"
    }
  ],
  "materials": [
    {
      "doubleSided": true,
      "extensions": {
        "KHR_materials_unlit": {}
      },
      "name": "pallet",
      "pbrMetallicRoughness": {
        "baseColorTexture": {
          "index": 0
        },
        "metallicFactor": 0.0
      }
    }
  ],
  "meshes": [
    {
      "name": "Object_0",
      "primitives": [
        {
          "attributes": {
            "NORMAL": 1,
            "POSITION": 0,
            "TEXCOORD_0": 2
          },
          "indices": 3,
          "material": 0,
          "mode": 4
        }
      ]
    },
    {
      "name": "Object_1",
      "primitives": [
        {
          "attributes": {
            "NORMAL": 5,
            "POSITION": 4,
            "TEXCOORD_0": 6
          },
          "indices": 7,
          "material": 0,
          "mode": 4
        }
      ]
    },
    {
      "name": "Object_2",
      "primitives": [
        {
          "attributes": {
            "NORMAL": 9,
            "POSITION": 8,
            "TEXCOORD_0": 10
          },
          "indices": 11,
          "material": 0,
          "mode": 4
        }
      ]
    },
    {
      "name": "Object_3",
      "primitives": [
        {
          "attributes": {
            "NORMAL": 13,
            "POSITION": 12,
            "TEXCOORD_0": 14
          },
          "indices": 15,
          "material": 0,
          "mode": 4
        }
      ]
    },
    {
      "name": "Object_4",
      "primitives": [
        {
          "attributes": {
            "NORMAL": 17,
            "POSITION": 16,
            "TEXCOORD_0": 18
          },
          "indices": 19,
          "material": 0,
          "mode": 4
        }
      ]
    },
    {
      "name": "Object_5",
      "primitives": [
        {
          "attributes": {
            "NORMAL": 21,
            "POSITION": 20,
            "TEXCOORD_0": 22
          },
          "indices": 23,
          "material": 0,
          "mode": 4
        }
      ]
    },
    {
      "name": "Object_6",
      "primitives": [
        {
          "attributes": {
            "NORMAL": 25,
            "POSITION": 24,
            "TEXCOORD_0": 26
          },
          "indices": 27,
          "material": 0,
          "mode": 4
        }
      ]
    }
  ],
  "nodes": [
    {
      "children": [
        1
      ],
      "matrix": [
        1.0,
        0.0,
        0.0,
        0.0,
        0.0,
        -1.0,
        -4.440892098500626e-16,
        0.0,
        0.0,
        4.440892098500626e-16,
        -1.0,
        0.0,
        0.0,
        9.536743164062502e-06,
        -9.536743164062498e-06,
        1.0
      ],
      "name": "Sketchfab_model"
    },
    {
      "children": [
        2,
        3,
        4,
        5,
        6,
        7,
        8
      ],
      "name": "pallet.obj.cleaner.materialmerger.gles"
    },
    {
      "mesh": 0,
      "name": "Object_2"
    },
    {
      "mesh": 1,
      "name": "Object_3"
    },
    {
      "mesh": 2,
      "name": "Object_4"
    },
    {
      "mesh": 3,
      "name": "Object_5"
    },
    {
      "mesh": 4,
      "name": "Object_6"
    },
    {
      "mesh": 5,
      "name": "Object_7"
    },
    {
      "mesh": 6,
      "name": "Object_8"
    }
  ],
  "samplers": [
    {
      "magFilter": 9729,
      "minFilter": 9987,
      "wrapS": 10497,
      "wrapT": 10497
    }
  ],
  "scene": 0,
  "scenes": [
    {
      "name": "Sketchfab_Scene",
      "nodes": [
        0
      ]
    }
  ],
  "textures": [
    {
      "sampler": 0,
      "source": 0
    }
  ]
}
